<?xml version="1.0" encoding="UTF-8" standalone="no"?>
<!-- Created with Inkscape (http://www.inkscape.org/) -->

<svg
   width="210mm"
   height="297mm"
   viewBox="0 0 210 297"
   version="1.1"
   id="svg1"
   inkscape:version="1.4 (86a8ad7, 2024-10-11)"
   sodipodi:docname="10 Button Gear - greish outline.svg"
   xmlns:inkscape="http://www.inkscape.org/namespaces/inkscape"
   xmlns:sodipodi="http://sodipodi.sourceforge.net/DTD/sodipodi-0.dtd"
   xmlns="http://www.w3.org/2000/svg"
   xmlns:svg="http://www.w3.org/2000/svg">
  <sodipodi:namedview
     id="namedview1"
     pagecolor="#ffffff"
     bordercolor="#000000"
     borderopacity="0.25"
     inkscape:showpageshadow="2"
     inkscape:pageopacity="0.0"
     inkscape:pagecheckerboard="0"
     inkscape:deskcolor="#d1d1d1"
     inkscape:document-units="mm"
     inkscape:zoom="1.0167041"
     inkscape:cx="367.85531"
     inkscape:cy="763.74237"
     inkscape:window-width="1920"
     inkscape:window-height="1009"
     inkscape:window-x="-8"
     inkscape:window-y="-8"
     inkscape:window-maximized="1"
     inkscape:current-layer="layer1" />
  <defs
     id="defs1">
    <pattern
       id="EMFhbasepattern"
       patternUnits="userSpaceOnUse"
       width="6"
       height="6"
       x="0"
       y="0" />
  </defs>
  <g
     inkscape:label="Layer 1"
     inkscape:groupmode="layer"
     id="layer1">
    <path
       id="path1"
       style="fill:#f4eed7"
       d="m 105.46875,47.287109 c -7.007813,0.007 -14.015624,0.01533 -21.023438,0.02148 -0.626186,7.802689 -2.204986,15.554649 -4.023437,23.158203 -3.414126,1.134868 -6.740706,2.525013 -9.972656,4.103515 C 63.150468,69.673565 55.851083,64.696314 49.398438,58.724609 38.257978,68.782847 27.522454,79.277568 16.751953,89.728516 c 3.555146,2.045282 6.377669,5.118445 8.693039,8.427266 2.772665,4.124998 5.497417,8.284068 8.371414,12.340308 -1.414955,2.87541 -2.624879,5.84524 -3.720703,8.85547 -7.431207,1.79947 -14.884272,3.52441 -22.2976052,5.38754 -3.5968568,1.42442 -5.6756977,5.57214 -5.0696967,9.32965 -0.015427,10.35859 -0.020577,20.71718 -0.017464,31.07578 8.8626255,1.55739 17.6292535,3.53952 26.3964845,5.54102 0.989322,3.66067 2.280586,7.24403 3.925781,10.66211 -4.734807,6.88473 -9.645438,13.79057 -16.00557,19.31031 -0.681045,0.63619 -1.362958,1.27145 -2.043258,1.90844 11.177763,11.44608 22.6693,22.58814 34.4375,33.42773 6.159322,-6.53107 13.592092,-11.63357 20.693359,-17.05664 2.922159,1.40941 5.902058,2.7214 8.998047,3.70312 1.80401,8.91084 3.533464,17.83648 5.481942,26.71489 1.309111,3.69002 5.604411,5.75917 9.358095,5.0054 5.211612,-0.3501 10.506232,-0.24457 15.756362,-0.20462 3.31592,0.0651 6.62833,0.35205 9.9411,0.40798 3.30051,-0.21079 6.36582,-2.66119 7.10899,-5.91779 0.71802,-2.60421 0.90459,-5.31483 1.51499,-7.94326 1.12756,-6.07128 2.47056,-12.10094 3.56899,-18.17783 3.08646,-0.89477 6.04701,-2.17242 8.93555,-3.57031 7.52113,5.21468 14.86358,10.68163 22.11523,16.26367 9.63013,-9.01891 19.14654,-18.18119 28.13086,-27.84766 2.48785,-3.36955 1.66362,-8.57086 -1.58789,-11.14843 -4.06599,-4.80267 -7.7667,-9.89638 -11.47656,-14.97461 1.76287,-3.35192 3.18042,-6.88397 4.22851,-10.52344 8.96287,-2.03072 17.92595,-4.06046 26.88867,-6.0918 0,-13.02083 10e-6,-26.04166 0,-39.0625 -9.26123,-2.20378 -18.51674,-4.43195 -27.80273,-6.52929 -1.19727,-3.0386 -2.61663,-5.98344 -4.10937,-8.88672 3.9419,-5.9811 8.12503,-11.821972 11.70019,-18.031482 1.36491,-3.623611 -0.22149,-7.863863 -3.17273,-10.215523 -7.15711,-7.290345 -14.57385,-14.319095 -21.81134,-21.528787 -0.5499,-0.540241 -1.10007,-1.080197 -1.64972,-1.620696 -6.6741,5.937128 -14.4428,10.420588 -21.67969,15.636719 -3.2648,-1.545666 -6.60031,-2.96145 -10.04882,-4.048828 -1.57006,-7.677574 -3.15429,-15.349055 -4.41211,-23.082031 -6.87435,0.0068 -13.7487,0.0158 -20.62305,0.02344 z M 89.771484,107.80469 c 0.506142,0.26275 -0.457441,0.57546 -0.333984,0.0625 0.05849,-0.12517 0.229809,-0.0934 0.333984,-0.0625 z m 15.398436,17.18945 c 4.55659,0.0763 9.0367,1.76055 12.61761,4.46284 3.91119,2.95989 6.98672,7.2272 7.98846,12.07445 0.33965,2.40729 0.11044,4.84705 0.11267,7.26771 -0.0647,2.02655 -0.72181,3.96759 -1.62083,5.76658 -2.57206,5.53561 -7.61227,10.0277 -13.60377,11.44405 -2.73125,0.55551 -5.4995,0.50941 -8.28058,0.32749 -2.423211,-0.25288 -4.777686,-1.25974 -6.861479,-2.58178 -3.404468,-1.92735 -6.447898,-4.69791 -8.086454,-8.30626 -1.483585,-2.96884 -2.288989,-6.25585 -2.317583,-9.49687 -0.107966,-4.69484 1.613876,-9.41036 4.551237,-12.98488 3.472249,-4.24639 8.555805,-7.33705 14.061379,-7.90272 0.479,-0.0447 0.95849,-0.0623 1.43934,-0.0706 z m -87.474608,19.96484 c 0.449997,0.31419 -0.529896,1.05471 -0.491674,0.31743 -0.01567,-0.24943 0.260277,-0.48362 0.491674,-0.31743 z" />
    <path
       style="fill:#000000"
       d="m 91.792573,245.74797 c -0.450018,-2.82849 -1.897426,-10.14401 -3.049208,-15.41137 -0.716407,-3.27629 -1.544858,-7.38655 -1.841002,-9.1339 -0.888422,-5.24201 -0.791189,-4.99184 -2.021788,-5.20192 -2.611921,-0.44588 -6.933568,-2.03353 -11.159062,-4.09949 l -4.572594,-2.23568 -0.987175,0.7988 c -0.542946,0.43934 -4.33121,3.29227 -8.418364,6.33984 -4.087154,3.04758 -8.103998,6.15595 -8.926319,6.90751 l -1.495129,1.36646 -1.928469,-1.78635 C 42.683162,218.92869 35.320248,211.82385 31.030825,207.50275 l -4.663969,-4.69841 0.638498,-0.5966 c 2.152988,-2.01173 8.814356,-10.65703 12.688493,-16.46748 l 2.6384,-3.95708 -0.719125,-1.07319 c -0.716977,-1.06998 -2.59068,-5.2069 -3.723682,-8.22146 -0.328367,-0.87367 -0.977988,-3.13729 -1.443604,-5.03026 l -0.846574,-3.44177 -1.553531,-0.33109 c -0.854442,-0.1821 -3.817151,-0.86288 -6.583798,-1.51284 -5.404149,-1.26958 -14.197826,-3.20123 -15.818867,-3.47482 l -0.992816,-0.16757 v -13.0757 c 0,-7.19164 -0.0059,-13.16506 -0.01313,-13.27427 -0.0072,-0.10921 0.796961,-0.34318 1.787068,-0.51993 2.203351,-0.39333 9.021225,-1.98698 12.787359,-2.98898 3.341912,-0.88913 6.934894,-1.73927 9.2384,-2.18591 l 1.692999,-0.32826 1.111462,-3.30939 c 1.207259,-3.59462 2.947507,-7.6324 4.751443,-11.02445 l 1.146214,-2.1553 -0.615879,-0.62458 c -0.616217,-0.62494 -4.245767,-5.90115 -9.535879,-13.862138 -1.548167,-2.329808 -3.168501,-4.608301 -3.600741,-5.063318 l -0.785892,-0.827303 2.717827,-2.614458 c 1.494806,-1.437952 3.469775,-3.367334 4.388821,-4.287514 C 37.98007,80.12614 44.6992,73.732319 47.37333,71.299855 l 2.173089,-1.976704 2.260557,1.888111 c 1.930283,1.612252 14.426898,10.27312 17.022284,11.797415 0.473242,0.27794 0.86044,0.603818 0.86044,0.724174 0,0.120356 0.506336,-0.06955 1.125192,-0.422024 2.842232,-1.618792 4.371238,-2.347178 8.075871,-3.847176 2.187314,-0.885638 4.971826,-1.897478 6.187804,-2.248532 l 2.210871,-0.638281 0.701087,-3.565587 c 0.385597,-1.961072 1.005099,-4.625504 1.376671,-5.920959 0.547015,-1.907126 1.698073,-8.091759 2.084912,-11.202232 l 0.07954,-0.639581 13.937442,-0.0223 13.93745,-0.0223 0.39276,2.250383 c 0.21602,1.23771 0.65228,3.50133 0.96948,5.030267 1.59612,7.693629 2.1525,10.366058 2.54475,12.222989 l 0.42883,2.03008 2.03009,0.44332 c 2.55024,0.556913 8.17459,2.750236 12.47293,4.864069 l 3.29459,1.620207 0.67668,-0.624336 c 1.05499,-0.973398 5.1749,-3.851045 11.53147,-8.054424 3.20348,-2.118358 6.31184,-4.241496 6.90746,-4.718084 l 1.08296,-0.866524 4.74276,4.682441 c 2.60852,2.575343 7.11047,6.975012 10.00435,9.777042 4.10819,3.977793 5.19781,5.171458 4.97062,5.445204 -0.16004,0.192832 -1.22309,1.831812 -2.36233,3.642179 -1.13924,1.810367 -3.317,5.101093 -4.83943,7.312728 -1.52245,2.21163 -3.48291,5.11582 -4.3566,6.45376 -0.87368,1.33794 -1.6886,2.567 -1.81093,2.73126 -0.13705,0.18398 0.44288,1.4742 1.51046,3.3605 1.83825,3.24798 4.20423,8.46738 5.18163,11.43073 0.54356,1.64803 0.64788,1.78707 1.34081,1.78707 0.41326,0 4.36488,0.87634 8.78138,1.94741 4.4165,1.07108 9.45965,2.27231 11.207,2.6694 1.74736,0.3971 3.594,0.82793 4.10364,0.95742 l 0.92663,0.23542 v 13.23455 13.23454 l -1.19138,0.26751 c -2.51133,0.56387 -10.67525,2.42936 -15.6203,3.56929 -2.83946,0.65455 -5.96683,1.34185 -6.94971,1.52734 -1.10683,0.20888 -1.78707,0.46707 -1.78707,0.67829 0,0.18757 -0.35312,1.76884 -0.78471,3.51394 -0.87839,3.55173 -3.61058,9.85608 -5.34365,12.33012 -0.56584,0.80776 -0.9729,1.55909 -0.90458,1.66963 0.0683,0.11054 1.41061,1.93557 2.98288,4.05561 1.57227,2.12005 3.33523,4.53674 3.91768,5.37042 1.60561,2.29815 5.84423,7.72574 7.55527,9.67457 l 1.52052,1.73184 -4.40552,4.679 c -3.72794,3.95935 -9.9393,10.08436 -16.26124,16.03517 l -1.49716,1.40926 -1.00133,-0.7725 c -4.58665,-3.53848 -16.03605,-11.74902 -18.14416,-13.01146 -0.54616,-0.32706 -1.15395,-0.82444 -1.35065,-1.10527 -0.35192,-0.50244 -0.36881,-0.50182 -1.05543,0.0383 -0.92886,0.73064 -6.68733,3.4573 -9.17657,4.34514 -1.0921,0.38952 -3.05617,0.98563 -4.36461,1.32469 l -2.37897,0.61648 -0.44992,2.87306 c -0.39802,2.54169 -1.79495,9.44265 -2.99323,14.78685 -0.22854,1.01929 -0.82297,4.27887 -1.32096,7.2435 -0.49798,2.96463 -0.95976,5.44457 -1.02617,5.51098 -0.0664,0.0664 -0.57953,-9.1e-4 -1.14028,-0.1496 -1.55714,-0.4129 -24.389958,-0.50578 -25.30039,-0.10292 -0.699039,0.30932 -0.722145,0.29175 -0.874322,-0.66473 z m 6.419272,-7.46884 c 0.522941,0 0.617649,-0.0946 0.463849,-0.46331 -0.330374,-0.79203 -0.890894,-3.51987 -1.319232,-6.42021 -0.225802,-1.52894 -0.580533,-3.67342 -0.788291,-4.76552 -0.565241,-2.97123 -1.066849,-5.86672 -2.132713,-12.31092 -1.463076,-8.84572 -1.406885,-8.6044 -2.003511,-8.6044 -0.919895,0 -6.970012,-1.29984 -8.458246,-1.81722 -2.193956,-0.76272 -6.427478,-2.80867 -6.838078,-3.30467 -0.200328,-0.242 -1.093862,-0.87421 -1.985632,-1.40493 -0.89177,-0.53072 -2.177709,-1.42278 -2.857644,-1.98236 -0.679934,-0.55958 -1.275624,-0.91392 -1.323754,-0.78744 -0.04813,0.12649 -0.921476,0.80617 -1.940767,1.5104 -1.994797,1.3782 -9.987045,7.38445 -14.296549,10.74398 -1.45613,1.13514 -3.678926,2.86869 -4.939547,3.85233 -2.464276,1.92282 -2.437612,1.84756 -1.185628,3.34661 l 0.633107,0.75805 2.746827,-1.94943 c 3.717269,-2.63814 8.735946,-6.35246 13.56438,-10.03897 2.203801,-1.6826 4.157781,-3.15027 4.342177,-3.26149 0.214651,-0.12947 0.928995,0.33524 1.985632,1.29174 1.201176,1.08734 2.659192,1.9902 5.356879,3.31718 3.835417,1.88663 6.61511,2.82077 10.755423,3.61446 1.325616,0.25412 2.441449,0.58525 2.479631,0.73584 0.03818,0.1506 0.333158,1.76304 0.655504,3.5832 1.186359,6.69891 2.16943,11.90735 3.198116,16.94406 0.579925,2.83945 1.052688,5.42294 1.050586,5.74109 -0.0021,0.31815 0.117837,0.89845 0.266532,1.28954 0.236099,0.62099 0.374474,0.69026 1.092097,0.54674 0.451959,-0.0904 1.117443,-0.16435 1.478852,-0.16435 z m 17.143445,0.006 c 0.0878,-0.1421 0.33238,-1.65048 0.54345,-3.35195 0.21107,-1.70147 0.55967,-3.81904 0.77467,-4.70571 0.45071,-1.85874 1.02203,-4.93796 1.73698,-9.3619 0.276,-1.70776 0.80292,-4.83251 1.17095,-6.9439 0.36803,-2.11139 0.67064,-3.86867 0.67246,-3.90508 0.002,-0.0364 0.31224,-0.0662 0.6898,-0.0662 1.18775,0 5.7046,-1.01071 8.11633,-1.81614 3.16407,-1.05668 8.69613,-4.09524 10.32716,-5.67233 l 1.31014,-1.26681 1.09805,0.64649 c 1.13881,0.6705 1.42102,0.87771 9.30533,6.83243 2.62103,1.97957 5.77819,4.25928 7.0159,5.06602 1.23771,0.80675 2.63758,1.78506 3.11082,2.17403 0.47324,0.38898 0.86044,0.5805 0.86044,0.42561 0,-0.15488 0.38044,-0.7149 0.84541,-1.24448 0.68212,-0.77689 0.77161,-1.0046 0.46332,-1.17889 -0.83646,-0.47288 -4.55717,-3.3902 -12.8588,-10.08229 -2.45705,-1.98067 -5.59917,-4.35413 -6.98249,-5.27437 -1.38333,-0.92023 -2.75791,-1.88794 -3.05462,-2.15046 -0.5266,-0.46591 -0.57403,-0.44837 -1.98563,0.73418 -4.28485,3.58959 -9.68818,6.17569 -16.22405,7.76503 -1.83663,0.44661 -3.4844,0.78088 -3.6617,0.74281 -0.5822,-0.12502 -0.99941,1.24467 -1.67998,5.51545 -0.36908,2.31611 -0.9126,5.64076 -1.20782,7.38812 -0.29522,1.74736 -0.71407,4.48753 -0.93078,6.08927 -0.81024,5.98865 -1.75768,11.15619 -2.25117,12.27838 -0.28029,0.63737 -0.50961,1.19573 -0.50961,1.2408 0,0.0896 1.30512,0.27078 2.43332,0.33787 0.39184,0.0233 0.7843,-0.0739 0.87212,-0.216 z M 163.2383,202.7287 c -0.87984,-0.9061 -3.22812,-3.51373 -5.21839,-5.79474 -4.12419,-4.72664 -9.78274,-10.19703 -9.91943,-9.58958 -0.0483,0.21478 1.32176,1.89597 3.04463,3.73598 4.66132,4.97822 13.36543,13.62327 13.54028,13.44841 0.0839,-0.0839 -0.56725,-0.89397 -1.44709,-1.80007 z m -10.33868,-3.41488 c -6.72558,-7.27848 -8.54198,-9.12595 -8.5441,-8.69023 -0.001,0.21842 0.78167,1.29066 1.73939,2.38276 2.21843,2.52967 10.74012,11.11954 11.0313,11.11954 0.12096,0 -1.781,-2.16543 -4.22659,-4.81207 z m -116.016195,2.22641 c 4.907997,-5.56578 13.277678,-16.79247 16.504169,-22.1379 1.341048,-2.22176 1.344714,-2.13285 -0.120781,-2.92948 -0.954626,-0.51893 -2.942741,-2.71063 -3.825986,-4.21777 -2.311976,-3.94509 -4.171586,-10.31861 -4.199276,-14.39235 l -0.01483,-2.18213 -0.80749,-0.1229 c -0.44412,-0.0676 -2.218002,-0.31433 -3.941961,-0.54831 -1.723959,-0.23398 -4.404562,-0.69923 -5.956896,-1.03388 -1.552333,-0.33465 -4.609493,-0.99438 -6.793688,-1.46606 -2.184195,-0.47168 -4.269108,-0.9848 -4.633141,-1.14027 -0.648214,-0.27683 -0.640016,-0.28768 0.397126,-0.52531 0.582452,-0.13346 5.844363,-0.26231 11.693134,-0.28634 9.851546,-0.0405 12.701744,-0.19647 9.842142,-0.53865 -0.6322,-0.0756 -3.949196,-0.26639 -7.371102,-0.42386 -15.365805,-0.70714 -18.520798,-0.90388 -19.630561,-1.22414 -0.575727,-0.16614 -0.337883,-1.0827 0.405269,-1.56175 0.723729,-0.46653 8.138123,-0.87031 19.195061,-1.04533 4.570183,-0.0723 8.372668,-0.19477 8.449967,-0.27207 0.417889,-0.41789 1.10954,-0.37676 -15.832761,-0.9415 -6.918751,-0.23063 -11.366169,-0.56068 -12.377105,-0.91853 -0.182017,-0.0644 -0.330939,-0.41334 -0.330939,-0.77534 0,-0.94591 0.560426,-1.01462 10.987163,-1.34698 2.766647,-0.0882 5.182605,-0.21053 5.368795,-0.27188 0.186191,-0.0613 3.015716,-0.12108 6.287834,-0.13276 5.391901,-0.0192 6.718563,-0.16723 5.542963,-0.61835 -0.223488,-0.0858 -4.006117,-0.2797 -8.405841,-0.43099 -10.601118,-0.36452 -17.605171,-0.72655 -17.929066,-0.92673 -0.144839,-0.0895 -0.263343,-0.394 -0.263343,-0.67663 0,-0.50772 0.07371,-0.5315 1.992273,-0.6427 0.294878,-0.0171 0.711861,-0.14121 0.926628,-0.27582 0.480667,-0.30127 6.740988,-0.605 16.540291,-0.80249 7.574185,-0.15264 8.348927,-0.21515 7.920611,-0.63908 -0.287684,-0.28473 -7.880916,-0.67802 -12.496026,-0.64722 -1.788413,0.0119 -3.158499,-0.0591 -3.044635,-0.15786 0.113864,-0.0988 1.696249,-0.60693 3.516411,-1.12927 3.658811,-1.04999 8.505842,-1.88336 11.053397,-1.90047 1.21289,-0.008 1.654726,-0.10721 1.654693,-0.37102 -3.3e-5,-0.25541 -0.269061,-0.32849 -0.926674,-0.25172 -0.509646,0.0595 -0.926531,0.10232 -0.926412,0.0951 1.19e-4,-0.007 0.174669,-0.84922 0.387889,-1.87123 1.043809,-5.00321 5.583934,-14.78348 8.010172,-17.25538 l 1.117627,-1.13866 -0.741705,-0.86104 c -0.407937,-0.47357 -1.750755,-2.35026 -2.98404,-4.17042 -1.233285,-1.82017 -3.14109,-4.56034 -4.239567,-6.08928 -1.098477,-1.528932 -2.326333,-3.375569 -2.728569,-4.103634 l -0.731339,-1.323755 1.417972,1.49949 c 0.779884,0.824719 2.008867,2.016098 2.731071,2.647508 l 1.3131,1.148021 -1.710226,-2.114529 c -0.940624,-1.16299 -3.122411,-3.533996 -4.848416,-5.268901 -3.456712,-3.474538 -4.669657,-4.986075 -4.676448,-5.827651 -0.0037,-0.45916 -0.215974,-0.330465 -1.219077,0.7391 l -1.214592,1.295066 1.609875,2.279071 c 0.885431,1.253489 2.590524,3.708726 3.789096,5.456082 2.268254,3.306812 7.642257,10.874872 8.799483,12.392072 0.647151,0.84846 0.65219,0.88655 0.171739,1.29792 -1.335561,1.14354 -5.708984,9.94534 -6.751502,13.58783 -0.376418,1.31519 -0.772709,3.09531 -0.880647,3.95583 l -0.19625,1.56458 -2.515133,0.45734 c -1.383324,0.25153 -6.089271,1.35127 -10.457661,2.44386 -4.36839,1.09259 -8.657355,2.12401 -9.531033,2.29204 -0.873678,0.16803 -2.035273,0.42013 -2.581322,0.56022 l -0.992815,0.25472 v 6.701 c 0,3.68555 0.07633,7.60398 0.169621,8.70762 l 0.169622,2.00663 2.014573,0.53959 c 1.108016,0.29678 4.337763,1.02148 7.177216,1.61044 2.839454,0.58897 6.949712,1.47643 9.133907,1.97214 2.184195,0.49571 4.544108,0.97926 5.244252,1.07455 0.700143,0.0953 1.31133,0.31385 1.358192,0.48567 0.04686,0.17183 0.222718,1.35954 0.390791,2.63937 0.473198,3.60328 1.948956,8.33117 3.598231,11.52766 1.865568,3.61569 3.038116,5.19139 4.368023,5.86986 l 1.064298,0.54297 -1.111106,1.51531 c -0.611108,0.83342 -1.95671,2.64713 -2.990226,4.03045 -1.033517,1.38332 -3.4751,4.753 -5.425741,7.48818 -1.950641,2.73517 -4.299745,5.85217 -5.22023,6.92667 -0.920486,1.0745 -1.673611,2.03451 -1.673611,2.13336 0,0.0988 0.268061,0.51065 0.59569,0.91512 0.703322,0.86828 1.024301,0.76919 2.339405,-0.72217 z m 130.602935,-1.4518 c -1.42424,-1.63814 -3.37145,-3.81241 -4.32712,-4.8317 -0.95568,-1.01929 -3.87519,-4.20623 -6.4878,-7.08209 -2.61261,-2.87585 -4.84549,-5.22883 -4.96195,-5.22883 -0.59664,0 0.052,0.95323 2.63732,3.87587 2.49102,2.816 15.4032,16.22269 15.64009,16.23905 0.0489,0.003 -1.0763,-1.33415 -2.50054,-2.9723 z m 8.88377,2.11801 0.77259,-0.86044 -0.61163,-0.66188 c -0.33639,-0.36403 -1.84494,-2.3298 -3.35232,-4.36839 -1.50739,-2.03858 -3.64684,-4.83832 -4.75434,-6.22164 -1.1075,-1.38333 -2.7504,-3.5527 -3.65089,-4.82084 -0.90049,-1.26814 -2.28884,-3.05283 -3.08523,-3.96597 l -1.44796,-1.66027 0.80716,-0.4174 c 1.76547,-0.91296 5.60551,-6.696 6.93763,-10.44797 0.95553,-2.69128 1.82047,-6.33222 2.01133,-8.46661 l 0.1662,-1.85867 1.32376,-0.21881 c 1.89588,-0.31338 6.04588,-1.21684 23.37781,-5.08935 0.5541,-0.1238 0.60202,-0.26115 0.5295,-1.51762 l -0.0797,-1.3815 -0.92663,0.0863 c -0.50964,0.0475 -3.54766,0.61691 -6.75115,1.26538 -10.16879,2.05842 -16.36057,3.22456 -19.00749,3.57979 l -2.56971,0.34487 2.1e-4,1.33307 c 2e-4,1.26859 -0.36735,3.59118 -1.21648,7.6871 -0.8241,3.97524 -3.86408,9.2619 -6.94615,12.07966 -0.7762,0.70964 -1.52082,1.29026 -1.65469,1.29026 -0.46143,0 -0.24093,0.57586 0.64185,1.67632 0.48689,0.60696 1.32683,1.83041 1.86651,2.71877 0.53969,0.88837 2.43473,3.41575 4.21119,5.6164 3.25068,4.02688 12.43595,15.07749 12.56614,15.11805 0.0385,0.012 0.41759,-0.36541 0.84252,-0.83865 z m -62.46702,-3.0077 c 8.36562,-1.4406 16.82723,-5.03112 23.35745,-9.91128 3.30094,-2.46685 8.49626,-7.64957 10.88422,-10.85783 4.68919,-6.29998 8.59334,-14.89747 9.98863,-21.99637 0.96186,-4.89374 1.31264,-12.84362 0.75873,-17.19544 -1.54188,-12.11393 -7.30262,-23.72246 -16.03968,-32.32173 -4.41988,-4.35018 -8.11316,-6.996972 -13.5938,-9.742034 -7.91685,-3.96527 -15.59851,-5.620183 -25.28371,-5.447044 -5.467009,0.09773 -7.825727,0.389219 -11.913795,1.472289 -6.302442,1.669734 -11.343048,4.006623 -17.341184,8.039599 -4.06499,2.73317 -10.277629,9.00726 -13.138854,13.26881 -5.568893,8.29437 -8.254677,15.53026 -9.237298,24.88658 -0.529121,5.03818 -0.281692,11.07543 0.694429,16.94406 0.435482,2.61821 2.846033,9.56428 4.593926,13.23754 4.002408,8.41121 10.647801,16.07086 18.48716,21.3088 5.303047,3.54327 13.156596,6.79573 19.168853,7.93856 5.729443,1.08908 13.554513,1.24692 18.614923,0.37549 z m -26.510016,-7.73497 -0.837526,-0.74833 0.436223,-1.93166 c 0.615275,-2.72452 0.582712,-2.99636 -0.411648,-3.4365 -0.847783,-0.37527 -0.847981,-0.37517 -1.919444,0.92818 -0.589365,0.71692 -1.561632,1.80923 -2.160592,2.42735 l -1.08902,1.12385 -1.028988,-0.36301 c -0.960961,-0.33901 -1.02508,-0.42691 -0.969884,-1.3296 0.03251,-0.53163 0.484789,-1.93478 1.005071,-3.11811 0.520282,-1.18333 0.851099,-2.22778 0.735149,-2.32098 -0.11595,-0.0932 -1.158097,-0.87908 -2.315883,-1.74638 -7.311316,-5.47691 -12.336886,-12.55295 -15.715681,-22.12779 -1.082169,-3.06666 -2.012038,-9.26311 -1.981581,-13.20485 0.07127,-9.22324 3.291026,-19.02121 8.791993,-26.75472 1.833102,-2.57705 6.631489,-7.58123 8.819084,-9.1973 5.721152,-4.22646 12.924017,-7.29037 19.118475,-8.1325 3.408518,-0.46339 10.249638,-0.51414 13.871128,-0.10291 10.26026,1.16508 20.70807,6.83316 27.52458,14.93245 2.58536,3.0719 5.0775,6.88565 6.52838,9.99045 1.59476,3.41269 3.2341,8.39869 3.59197,10.92487 0.16503,1.16491 0.40618,2.89241 0.5359,3.83889 0.57738,4.21276 0.0542,10.83555 -1.23388,15.62031 -0.73804,2.74149 -3.03676,8.00589 -4.83459,11.07189 -1.69607,2.89246 -4.88782,7.00841 -7.43531,9.58825 -5.28697,5.35413 -14.12167,9.98846 -22.24916,11.67103 -2.66081,0.55085 -3.76223,0.62991 -8.73678,0.6271 -6.166577,-0.003 -8.816112,-0.3186 -11.500681,-1.36783 -0.864885,-0.33802 -1.657745,-0.61459 -1.761912,-0.61459 -0.104166,0 -0.488438,0.50634 -0.853937,1.12519 -0.792053,1.34109 -2.506148,3.37558 -2.843985,3.37558 -0.13197,0 -0.616831,-0.33675 -1.077471,-0.74833 z m 25.583386,-17.74669 c 2.49005,-0.66049 6.18532,-2.42395 8.93979,-4.26625 5.09136,-3.40532 9.1815,-9.17637 11.25004,-15.87345 0.65905,-2.13374 0.70165,-2.59352 0.7132,-7.69669 0.0113,-4.97739 -0.0393,-5.59203 -0.61004,-7.41303 -1.02938,-3.2844 -2.09964,-5.55505 -3.86767,-8.20565 -7.02407,-10.53033 -20.79422,-15.72665 -31.875257,-12.02847 -6.473589,2.16049 -12.11496,6.48462 -15.763743,12.08295 -2.525377,3.8747 -3.846541,7.51045 -4.399534,12.10722 -0.679562,5.64886 0.281326,11.1809 2.820504,16.23826 2.223054,4.42772 4.207123,6.93139 7.393061,9.3292 4.253702,3.20143 8.720039,5.41792 12.258909,6.08368 3.0645,0.57652 10.36812,0.37767 13.14074,-0.35777 z m 21.79834,-51.43499 c 1.48011,-1.69422 2.69112,-3.21323 2.69112,-3.37557 0,-0.5207 -0.47826,-0.31643 -1.01355,0.43289 -0.28606,0.40044 -1.54512,1.97199 -2.79792,3.49234 -1.25279,1.52035 -2.2778,2.88618 -2.2778,3.03518 0,0.31416 -0.10354,0.42338 3.39815,-3.58484 z m 4.2699,2.35234 0.61936,-0.86044 -0.83432,0.7776 c -0.88425,0.82412 -0.96248,0.94328 -0.61936,0.94328 0.11823,0 0.49367,-0.3872 0.83432,-0.86044 z m -58.134216,-1.85326 c -0.107107,-0.18201 -0.68358,-0.98619 -1.281053,-1.78707 -0.597473,-0.80087 -1.425663,-1.99225 -1.840423,-2.6475 -0.979576,-1.54759 -1.765327,-2.40164 -2.048538,-2.2266 -0.4437,0.27422 -0.212865,0.90855 0.68822,1.8912 0.502967,0.5485 1.702563,1.92059 2.665769,3.04909 1.614418,1.89147 2.297051,2.53834 1.816025,1.72088 z m 50.071816,-3.24137 c 2.76919,-3.22824 3.60914,-4.35964 3.43988,-4.63351 -0.31663,-0.51233 -0.79985,-0.25392 -1.36256,0.72865 -0.51442,0.89826 -1.92439,2.77295 -4.06704,5.40755 -0.43612,0.53625 -0.78917,1.19151 -0.78456,1.45613 0.007,0.37517 0.13771,0.30662 0.59569,-0.31132 0.32302,-0.43583 1.30338,-1.62721 2.17859,-2.6475 z m -48.336886,-3.47745 c -2.2521,-4.46886 -2.562213,-4.80883 -3.329909,-3.65053 -0.334435,0.50459 -0.241941,0.719 1.085007,2.51513 0.797835,1.07993 2.076563,2.89694 2.841619,4.03779 0.765055,1.14085 1.437614,1.93446 1.494574,1.76358 0.05696,-0.17088 -0.88412,-2.27057 -2.091291,-4.66597 z m 45.255616,-0.21769 c 2.21703,-3.20292 2.85402,-4.30593 2.63739,-4.56695 -0.15709,-0.18928 -0.42126,-0.34414 -0.58705,-0.34414 -0.16579,0 -1.24464,1.69772 -2.39744,3.7727 -1.1528,2.07499 -2.30956,4.08399 -2.57058,4.46446 -0.26102,0.38047 -0.39868,0.76767 -0.30591,0.86044 0.21395,0.21395 -0.1455,0.68077 3.22359,-4.18651 z m -39.23886,2.38562 c -0.08043,-0.20959 -0.500496,-1.43075 -0.933488,-2.7137 -0.432993,-1.28294 -1.213902,-3.14546 -1.735353,-4.13893 -0.521451,-0.99347 -0.948093,-1.97636 -0.948093,-2.1842 0,-0.47413 -0.8042,-0.4902 -1.435359,-0.0287 -0.456736,0.33398 -0.451546,0.40035 0.119038,1.52232 0.328129,0.64522 1.040211,1.82838 1.582405,2.62925 0.542194,0.80087 1.420457,2.31988 1.951696,3.37557 0.531238,1.0557 1.096274,1.91945 1.255636,1.91945 0.159361,0 0.223944,-0.17148 0.143518,-0.38107 z m 33.25562,-1.80313 c 0.35581,-0.61885 1.49781,-2.5241 2.53776,-4.23389 1.03996,-1.70978 1.89083,-3.2246 1.89083,-3.36625 0,-0.37998 -1.08007,-0.89131 -1.33422,-0.63166 -0.12011,0.1227 -0.63091,1.23576 -1.13512,2.47347 -0.50421,1.23771 -1.34626,3.1803 -1.87122,4.31687 -0.89792,1.94408 -1.10282,2.56665 -0.84472,2.56665 0.0604,0 0.40087,-0.50633 0.75669,-1.12519 z m -30.496211,-4.93969 c -0.449116,-2.16992 -0.816574,-4.19492 -0.816574,-4.49999 0,-0.30506 -0.02978,-0.54941 -0.06619,-0.54298 -0.0364,0.006 -0.606309,0.15535 -1.266457,0.33094 l -1.200269,0.31925 1.98053,4.47656 c 1.089291,2.4621 2.026654,4.33817 2.08303,4.16905 0.05638,-0.16913 -0.264957,-2.0829 -0.714073,-4.25283 z m 26.862291,2.81674 c 1.49545,-4.10866 2.25629,-6.07983 2.61287,-6.76938 0.23065,-0.44603 0.41937,-0.92309 0.41937,-1.06012 0,-0.23522 -1.85845,-1.1009 -2.36341,-1.1009 -0.12907,0 -0.31755,1.1616 -0.41884,2.58132 -0.10128,1.41973 -0.34848,3.53443 -0.54933,4.69933 -0.20085,1.16491 -0.36737,2.28679 -0.37005,2.49307 -0.007,0.54354 0.30999,0.14409 0.66939,-0.84332 z m -21.952411,-4.62605 c -0.09263,-2.68797 -0.229778,-4.9865 -0.304777,-5.10785 -0.143937,-0.2329 -1.987645,-0.0377 -2.28872,0.24229 -0.09704,0.0902 0.121368,1.2959 0.485342,2.67922 0.804455,3.05742 1.012019,3.92608 1.408422,5.89427 0.191015,0.94842 0.413441,1.4603 0.587734,1.35258 0.190979,-0.11803 0.2267,-1.73205 0.111999,-5.06051 z m 18.205911,4.23387 c 0.0832,-0.54605 0.27714,-2.65884 0.43091,-4.69509 0.15376,-2.03626 0.34326,-3.95604 0.4211,-4.26619 0.13552,-0.53996 -0.39475,-0.88481 -1.3794,-0.89708 -0.45825,-0.006 -0.76749,10.34004 -0.3176,10.62543 0.57596,0.36536 0.68787,0.26378 0.84499,-0.76707 z m -13.60708,-5.36121 v -5.03026 h -0.79425 -0.794255 v 1.93965 c 0,2.88873 0.538226,7.69603 0.886535,7.91826 0.16766,0.10698 0.3942,0.19634 0.50341,0.19857 0.10921,0.002 0.19856,-2.25957 0.19856,-5.02622 z m 9.0945,3.2432 c 0.0888,-0.98289 0.24017,-3.24651 0.33646,-5.03027 l 0.17508,-3.24319 h -0.69938 -0.69938 l -0.0226,3.37557 c -0.0283,4.22975 0.0308,6.2194 0.19259,6.48111 0.33999,0.55013 0.5705,0.0413 0.7172,-1.58322 z m -4.49891,0.5295 c 0.21196,-1.28234 0.21923,-8.10167 0.009,-8.64894 -0.0884,-0.23032 -0.46181,-0.41878 -0.82984,-0.41878 h -0.66913 l 0.18368,4.54756 c 0.17167,4.25012 0.38268,5.51298 0.92116,5.51298 0.12144,0 0.29464,-0.44677 0.3849,-0.99282 z m 90.0278,24.25555 c 0.0962,-0.60189 0.14126,-1.12006 0.10003,-1.15149 -0.18137,-0.13826 -7.0792,-1.77949 -9.54122,-2.27018 -3.61946,-0.72137 -3.28832,-0.64105 -6.92185,-1.67897 -1.76191,-0.50328 -4.57355,-1.17201 -6.2481,-1.48605 -1.67455,-0.31405 -3.0789,-0.60512 -3.12078,-0.64682 -0.0419,-0.0417 -0.37209,-1.19322 -0.73382,-2.55894 -0.76046,-2.87117 -1.40535,-4.54906 -3.2769,-8.52582 -1.6125,-3.42631 -3.7094,-6.97315 -4.63868,-7.84616 -0.37021,-0.3478 -0.67311,-0.71297 -0.67311,-0.81148 0,-0.0985 0.624,-1.00107 1.38667,-2.00567 0.76267,-1.0046 2.70261,-3.79233 4.31097,-6.19494 3.1531,-4.710183 7.56928,-11.117106 8.38323,-12.162272 0.50198,-0.644574 0.50151,-0.64688 -0.29416,-1.442553 -0.43832,-0.438321 -0.8347,-0.743487 -0.88085,-0.678148 -0.0461,0.06534 -0.51973,0.666692 -1.05241,1.33634 -0.99262,1.247831 -2.11417,2.70474 -4.05606,5.268855 -0.60653,0.800872 -2.44936,3.421906 -4.09518,5.82452 -1.64581,2.402618 -3.43452,4.904508 -3.97491,5.559768 -1.33272,1.61602 -3.96409,5.6892 -3.96004,6.12987 0.002,0.19609 0.40286,0.61524 0.89124,0.93146 1.75017,1.13317 6.04677,9.242 7.29761,13.77254 0.43449,1.57373 0.86739,3.35663 0.96198,3.96198 0.15486,0.99099 0.28112,1.14194 1.26728,1.51506 0.6024,0.22793 2.40579,0.72049 4.00754,1.0946 1.60174,0.3741 4.04407,0.96846 5.42739,1.3208 3.17521,0.80874 9.4326,2.05485 13.89942,2.76795 1.89297,0.30221 3.79918,0.65637 4.23602,0.78703 0.43684,0.13066 0.86838,0.2478 0.95898,0.26031 0.0906,0.0125 0.24347,-0.4697 0.33971,-1.07159 z m -40.60364,-29.08725 c 1.08264,-1.23771 3.03048,-3.41373 4.32855,-4.8356 1.29807,-1.42187 2.29501,-2.65032 2.21544,-2.729897 -0.0796,-0.07958 -0.96143,0.793917 -1.95968,1.941087 -0.99824,1.14717 -2.97658,3.36741 -4.39631,4.93387 -1.41973,1.56645 -2.58132,2.98216 -2.58132,3.14602 0,0.18218 0.0825,0.20021 0.21244,0.0464 0.11685,-0.13833 1.09824,-1.26418 2.18088,-2.50189 z m -97.438899,1.25325 c 0,-0.0388 -1.391066,-1.43865 -3.091259,-3.11083 -2.140097,-2.10483 -2.667284,-2.5378 -1.71335,-1.40716 1.738106,2.06006 4.804609,4.94363 4.804609,4.51799 z m 1.963883,-4.49716 C 56.636718,101.27355 46.246167,90.423632 43.809173,87.88982 42.607245,86.64014 41.344669,85.239268 41.003448,84.77677 l -0.6204,-0.840906 -1.033164,0.906686 -1.033164,0.906686 0.592982,0.426932 c 1.477226,1.063565 6.420928,5.444542 10.63108,9.42098 8.250262,7.792272 11.533098,10.803332 11.650472,10.685952 0.06341,-0.0634 -0.708881,-0.97908 -1.71621,-2.03482 z m 98.542416,-6.154748 c 10.60476,-10.92508 12.64843,-13.217039 12.15235,-13.628749 -0.31137,-0.258417 -0.68146,0.01241 -2.0414,1.493913 -0.9136,0.995253 -2.80784,3.00093 -4.20942,4.45706 -8.23819,8.558777 -15.01974,16.174554 -14.22488,15.974734 0.19619,-0.0493 3.9417,-3.78296 8.32335,-8.296958 z m -8.3572,2.047198 c 6.24912,-6.427765 10.80995,-11.176938 14.10001,-14.682253 3.06905,-3.269853 3.36466,-3.669061 3.0929,-4.176852 -0.16527,-0.308798 -0.38616,-0.524428 -0.49087,-0.479177 -0.16196,0.06999 -6.27203,6.552576 -14.17837,15.042783 -1.15152,1.236565 -2.87965,3.201404 -3.84029,4.366309 -2.63699,3.19773 -2.53183,3.04463 -2.09137,3.04463 0.20852,0 1.74212,-1.40195 3.40799,-3.11544 z m -87.396604,0.53412 c -1.07567,-1.128497 -3.270071,-3.426489 -4.876447,-5.106645 -9.94315,-10.399833 -13.378344,-14.22088 -13.378344,-14.881046 0,-0.366551 -0.299471,-0.195802 -1.244037,0.709308 -0.68422,0.65564 -1.190556,1.238038 -1.125191,1.294217 0.06536,0.05618 0.952811,0.800704 1.972102,1.654501 1.019291,0.853796 4.772135,4.247766 8.339653,7.542154 7.670285,7.083045 11.862672,10.839331 12.097762,10.839331 0.09365,0 -0.709828,-0.92332 -1.785498,-2.05182 z M 158.80572,83.887335 c 1.60875,-1.843276 3.4743,-3.809052 4.14566,-4.36839 0.67135,-0.559339 1.22824,-1.103743 1.23752,-1.209787 0.009,-0.106044 -0.63698,-0.846669 -1.43615,-1.645833 l -1.45302,-1.453026 -5.23194,3.831919 c -2.87756,2.107556 -5.88719,4.335915 -6.68806,4.95191 -2.34625,1.804633 -8.95797,6.289253 -9.2723,6.289253 -0.15865,0 -1.02637,-0.600762 -1.92828,-1.335027 -3.13899,-2.555516 -11.46559,-6.1425 -16.3208,-7.030771 -1.7069,-0.312283 -2.41792,-0.557421 -2.51338,-0.866543 -0.0732,-0.237087 -0.42562,-2.098998 -0.78312,-4.13758 -0.3575,-2.038582 -0.90397,-4.838322 -1.21437,-6.221646 -0.50658,-2.257602 -0.83903,-3.912612 -1.90379,-9.47757 l -0.31903,-1.667419 -1.07409,0.07891 c -0.88957,0.06536 -1.06593,0.169597 -1.02657,0.606764 0.0261,0.290318 0.10656,1.243421 0.1787,2.118007 0.0721,0.874586 0.25783,2.22445 0.41265,2.999697 0.15482,0.775248 0.5234,3.098437 0.81907,5.162643 0.29567,2.064206 0.58992,4.110515 0.65388,4.547354 0.064,0.436839 0.31153,1.687787 0.55014,2.779885 0.23861,1.092097 0.63082,3.28982 0.87157,4.883828 l 0.43773,2.898197 2.37415,0.342434 c 5.2165,0.7524 12.24985,3.662384 17.97475,7.436892 1.78865,1.179281 1.82762,1.190876 2.55599,0.76062 1.02363,-0.604674 1.2468,-0.546087 0.6048,0.158772 -0.29841,0.327629 -0.68078,0.86375 -0.84972,1.191379 -0.56614,1.097976 0.22669,0.662886 2.18865,-1.201092 3.88334,-3.689412 5.47658,-5.045262 10.11112,-8.604597 2.61409,-2.007627 6.00058,-4.774894 7.52552,-6.149484 4.20061,-3.786452 3.97572,-2.751348 -0.41346,1.90302 -2.0256,2.147988 -4.57029,4.863036 -5.65486,6.033439 -1.08457,1.170404 -3.06828,3.259816 -4.40824,4.64314 -3.1364,3.237885 -6.1975,7.092425 -6.18826,7.792274 0.009,0.658213 11.45484,-10.790833 16.03754,-16.041576 z M 66.733502,98.42925 C 65.888735,97.356969 54.767145,85.980194 49.635458,80.938891 c -2.546327,-2.50148 -2.995645,-3.363553 -1.753105,-3.363553 0.473498,0 1.309812,0.529755 2.61223,1.654693 2.508177,2.166388 2.693836,2.314238 4.242673,3.37867 0.724777,0.498099 3.375671,2.577592 5.890876,4.621096 7.121003,5.78553 7.737817,6.261603 7.737817,5.972256 0,-0.438732 0.339352,-0.324711 1.987665,0.667852 l 1.559389,0.939015 0.675419,-0.551029 c 4.474344,-3.650317 12.205719,-7.094111 18.244591,-8.126708 1.403543,-0.239995 2.634499,-0.505955 2.735457,-0.591024 0.100958,-0.08507 0.438436,-1.941739 0.749952,-4.125933 0.598963,-4.199639 1.711583,-9.73432 2.094361,-10.418305 0.3315,-0.592357 0.536919,1.929862 0.766665,9.413428 0.180029,5.864148 0.308279,7.050844 0.717752,6.641371 0.07914,-0.07914 0.130064,-2.74982 0.113152,-5.934833 -0.01691,-3.185012 -0.0244,-5.91007 -0.01664,-6.055683 0.0078,-0.145613 0.05552,-3.689965 0.106132,-7.876339 l 0.09202,-7.611588 h -1.013536 c -0.557445,0 -1.097459,-0.02978 -1.200031,-0.06619 -0.218249,-0.07746 -0.464238,0.973449 -1.936593,8.273466 -0.602064,2.985066 -1.275289,6.201789 -1.496055,7.148274 -0.220766,0.946484 -0.562172,2.776351 -0.758679,4.066372 -0.196507,1.29002 -0.393913,2.374492 -0.438678,2.409939 -0.04477,0.03545 -1.272772,0.334553 -2.728902,0.664682 -6.14406,1.392961 -12.588225,4.238719 -15.77504,6.966293 l -2.007993,1.718628 -1.963271,-1.488252 c -1.079799,-0.818539 -4.724231,-3.396482 -8.098738,-5.728762 -3.374507,-2.332281 -7.39113,-5.171156 -8.92583,-6.308612 l -2.790364,-2.068101 -1.995144,2.034369 c -1.097329,1.118902 -1.995144,2.129012 -1.995144,2.244689 0,0.115676 1.033493,1.01733 2.296651,2.003676 2.477034,1.934209 10.159874,8.914853 16.054626,14.587267 3.697341,3.557884 4.930356,4.450455 3.314356,2.399233 z M 102.4387,73.979087 c 0.0287,-6.977261 0.0998,-12.944871 0.15797,-13.261354 0.0756,-0.411545 -0.0524,-0.617868 -0.44938,-0.72445 -1.33645,-0.358789 -1.29991,-0.524477 -1.11858,5.072575 0.0932,2.875856 0.22683,7.611588 0.29701,10.523848 0.19815,8.22277 0.40606,11.293639 0.75672,11.176696 0.22222,-0.07411 0.31806,-3.51423 0.35626,-12.787315 z m 4.58725,9.884084 c 0.004,-1.492533 0.0784,-7.517687 0.16641,-13.389232 l 0.16004,-10.675536 -0.88078,0.0855 -0.88078,0.0855 0.0754,6.61498 c 0.0415,3.638239 0.11773,6.683417 0.16942,6.767062 0.0517,0.08365 0.10983,2.110696 0.12918,4.504558 0.0498,6.164549 0.25403,8.720865 0.69664,8.720865 0.27722,0 0.35951,-0.612721 0.36444,-2.713697 z m 4.57975,0.132376 c 0.0784,-1.419727 0.1192,-3.534425 0.0908,-4.699329 -0.0284,-1.164903 -0.0797,-6.079342 -0.11391,-10.920974 -0.0608,-8.605731 -0.0741,-8.802967 -0.5917,-8.802967 -0.47487,0 -0.53195,0.184383 -0.55315,1.787068 -0.0699,5.282392 -0.003,10.673932 0.17258,13.96561 0.10892,2.038582 0.22317,5.374443 0.2539,7.413025 0.0618,4.101002 0.037,3.838888 0.36286,3.838888 0.1299,0 0.3003,-1.161594 0.37866,-2.581321 z"
       id="path2"
       sodipodi:nodetypes="ssssscssscsscsscssscssscscssscsscssscssscsssssscssscccscscsscssscssssssssssssscccsssssssssscsscsssssscssssssssssssssssssssssscsssssssssssssssssscssscsssssssssssssssssssssssssssscssscsssscsssssssccsscssssscccsssssssccscssssscsssscsscsssscsssssscsssscsscsssssssscssssssccssssscsccssssscssscsssccsscssssssssccsssssssssssssssssscsssscssssssssssssssssssscssssssssssssssssssssssssscsssssssssssssscsssssssssssssssssssssssssssssssssssscscsssssssssscssscssssssscssscccsscscscccscccccscssccsssssssssssssscsssscssssssssssssssssssssssscsscccsssccssssssssssssssssssssssssscscssssssssscsccsscsscssssssssssscsssssssssscsssssssscscsssssssscssscssssssccscssccsccccscscccsssccsscc" />
  </g>
</svg>
